<?xml version="1.0" encoding="UTF-8" standalone="no"?><!DOCTYPE svg PUBLIC "-//W3C//DTD SVG 1.1//EN" "http://www.w3.org/Graphics/SVG/1.1/DTD/svg11.dtd"><svg width="100%" height="100%" viewBox="0 0 209 209" version="1.1" xmlns="http://www.w3.org/2000/svg" xmlns:xlink="http://www.w3.org/1999/xlink" xml:space="preserve" xmlns:serif="http://www.serif.com/" style="fill-rule:evenodd;clip-rule:evenodd;stroke-linejoin:round;stroke-miterlimit:2;"><g id="favicon"><path d="M208.333,33.333c0,-18.397 -14.936,-33.333 -33.333,-33.333l-141.667,0c-18.397,0 -33.333,14.936 -33.333,33.333l0,141.667c0,18.397 14.936,33.333 33.333,33.333l141.667,0c18.397,0 33.333,-14.936 33.333,-33.333l0,-141.667Z" style="fill:#f1f5f9;"/><g><path d="M133.776,155.337c1.853,7.63 10.518,18.338 10.518,18.338c0.491,-5.259 1.553,-7.152 2.589,-7.616c-2.725,-3.692 -7.071,-10.273 -8.338,-15.464l-4.769,4.742Z" style="fill:#f8e3a3;fill-rule:nonzero;"/><path d="M159.513,149.669c0.711,0.196 1.411,0.428 2.098,0.695c2.508,-0.555 5.092,-0.684 7.643,-0.382c-0.313,-1.591 -0.769,-3.15 -1.362,-4.659c-3.248,0.314 -6.252,1.872 -8.379,4.346Z" style="fill:#d64545;fill-rule:nonzero;"/><path d="M154.267,162.449c0,-0 -3.61,-4.946 -4.986,4.469c0.084,0.09 0.161,0.185 0.231,0.286c11.404,13.801 27.958,9.537 27.958,9.537c-0.529,-1.421 -1.143,-2.809 -1.839,-4.156c-8.271,-0.028 -16.111,-3.748 -21.364,-10.136Z" style="fill:#f8e3a3;fill-rule:nonzero;"/><path d="M146.883,166.059c1.267,1.744 2.153,2.848 2.153,2.848c0.063,-0.709 0.145,-1.363 0.245,-1.962c-0.436,-0.409 -1.431,-1.335 -2.398,-0.886Z" style="fill:#d64545;fill-rule:nonzero;"/><path d="M154.267,162.449c5.245,6.403 13.086,10.139 21.364,10.177c-4.151,-8.686 -11.707,-15.286 -20.873,-18.229c1.74,-2.097 4.143,-3.539 6.812,-4.088c-0.687,-0.267 -1.387,-0.499 -2.098,-0.695c2.117,-2.464 5.105,-4.022 8.338,-4.346c-4.278,-10.64 -13.324,-10.613 -13.324,-10.613l-15.941,15.94c1.267,5.191 5.654,11.772 8.338,15.464c0.994,-0.449 1.962,0.409 2.398,0.886c1.376,-9.415 4.986,-4.496 4.986,-4.496Zm-52.863,-0.232l3.188,-18.924c-0.313,-0.177 -23.829,-13.434 -32.603,-20.778l0,10.478l29.415,29.224Z" style="fill:#f29b9b;fill-rule:nonzero;"/><path d="M151.638,101.997l-7.562,1.785l-24.033,-34.375l22.317,-1.716l27.466,25.777l3.434,3.433l-21.622,5.096" style="fill:#d64545;fill-rule:nonzero;"/><path d="M140.071,122.461l7.343,-6.962c-1.362,-4.237 -19.551,-55.684 -77.142,-78.75l-26.363,23.761c0.068,0.137 0.15,0.341 0.232,0.518l18.897,-17.031c56.596,22.685 75.084,72.755 77.033,78.464Z" style="fill:#62b0e8;fill-rule:nonzero;"/><path d="M141.038,124.355l-15.668,13.978l11.771,11.772l14.797,-14.851l-10.9,-10.899Z" style="fill:#f8e3a3;fill-rule:nonzero;"/><path d="M157.619,129.328l-10.709,-12.249l-21.636,21.159l0.096,0.095l13.774,-13.474l11.431,11.758l7.044,-7.289Z" style="fill:#f7d070;fill-rule:nonzero;"/><path d="M60.122,41.273c-6.525,-2.984 -13.663,-4.385 -20.832,-4.088c0.396,7.035 1.492,14.014 3.27,20.832c1.779,6.818 5.831,-4.564 11.853,-9.796c2.217,-2.04 4.138,-4.378 5.709,-6.948Z" style="fill:#f29b9b;fill-rule:nonzero;"/><path d="M66.853,35.033c-18.884,-5.164 -27.385,-4.333 -27.385,-4.333c-0.21,2.15 -0.269,4.313 -0.178,6.471c7.046,0.778 14.015,2.145 20.832,4.088c-1.571,2.57 -3.492,4.909 -5.709,6.948c5.341,-4.659 10.818,-9.945 12.44,-13.174Z" style="fill:#d64545;fill-rule:nonzero;"/><path d="M63.038,43.997l-18.897,17.031c3.569,8.175 29.252,63.667 78.477,77.973l17.453,-16.54c-0.395,-6.335 -16.745,-56.746 -77.033,-78.464Zm15.818,42.155c-1.114,0.334 -2.27,0.504 -3.434,0.504c-6.599,-0 -12.03,-5.431 -12.03,-12.031c-0,-6.599 5.431,-12.03 12.03,-12.03c1.164,-0.001 2.32,0.169 3.434,0.504c-5.08,1.518 -8.585,6.224 -8.585,11.526c0,5.302 3.505,10.008 8.585,11.527Z" style="fill:#84c5f4;fill-rule:nonzero;"/><ellipse cx="78.856" cy="74.557" rx="8.583" ry="11.526" style="fill:#b6e0fe;"/><path d="M114.988,151.767c-0.361,0.002 -0.718,-0.073 -1.049,-0.218c-17.242,-7.456 -32.887,-18.166 -46.078,-31.54c-7.371,-7.36 -13.981,-15.443 -19.728,-24.13c-0.278,-0.436 -0.425,-0.943 -0.425,-1.46c-0,-1.495 1.23,-2.725 2.725,-2.725c0.899,-0 1.743,0.445 2.25,1.188c5.545,8.37 11.922,16.157 19.034,23.244c12.267,12.441 26.73,22.506 42.658,29.687l31.663,-31.718c-7.165,-15.94 -17.206,-30.424 -29.619,-42.726c-24.674,-24.728 -56.242,-39.211 -83.014,-38.353c-0.546,16.09 4.509,34.388 14.346,51.773c0.238,0.415 0.364,0.885 0.364,1.363c-0,1.499 -1.235,2.734 -2.735,2.734c-0.977,-0 -1.883,-0.524 -2.37,-1.372c-10.9,-19.224 -16.145,-39.511 -14.919,-57.223c0.088,-1.377 1.21,-2.482 2.589,-2.548c28.747,-2.002 63.122,13.243 89.622,39.784c13.351,13.217 24.037,28.879 31.472,46.132c0.432,1.017 0.205,2.2 -0.572,2.984l-34.279,34.32c-0.512,0.515 -1.209,0.805 -1.935,0.804Z" style="fill:#102a43;fill-rule:nonzero;"/><path d="M129.58,161.659c-0.721,-0.004 -1.413,-0.293 -1.921,-0.804l-5.545,-5.545c-0.511,-0.512 -0.799,-1.205 -0.799,-1.928c0,-1.496 1.231,-2.727 2.727,-2.727c0.722,0 1.416,0.288 1.927,0.799l3.611,3.624l25.709,-25.75l-10.314,-10.328c-0.451,-0.5 -0.702,-1.152 -0.702,-1.826c0,-1.495 1.23,-2.725 2.725,-2.725c0.678,0 1.332,0.253 1.833,0.709l12.262,12.262c0.512,0.511 0.799,1.205 0.799,1.928c0,0.723 -0.287,1.417 -0.799,1.928l-29.592,29.579c-0.512,0.515 -1.209,0.804 -1.935,0.804l0.014,-0Zm-29.892,13.597c-0.721,-0.003 -1.413,-0.293 -1.921,-0.804l-9.21,-9.278c-0.568,-0.517 -0.892,-1.249 -0.892,-2.016c-0,-1.495 1.23,-2.725 2.725,-2.725c0.77,-0 1.506,0.327 2.022,0.899l5.6,5.613l4.442,-22.208c0.208,-1.319 1.356,-2.3 2.691,-2.3c1.495,0 2.725,1.23 2.725,2.725c-0,0.215 -0.025,0.429 -0.076,0.638l-5.45,27.249c-0.197,0.982 -0.921,1.779 -1.88,2.07c-0.25,0.085 -0.512,0.131 -0.776,0.137Zm-15.055,-15.069l-0.003,0c-1.495,0 -2.724,-1.23 -2.724,-2.725c-0,-0.726 0.29,-1.423 0.806,-1.934c0.51,-0.507 1.2,-0.791 1.918,-0.791c1.495,0 2.725,1.23 2.725,2.725c0,1.494 -1.228,2.724 -2.722,2.725Zm-5.845,-5.913c-0.722,-0.003 -1.413,-0.292 -1.921,-0.804l-9.006,-9.019c-0.548,-0.55 -0.836,-1.309 -0.79,-2.085l1.362,-23.161c0.082,-1.436 1.287,-2.573 2.725,-2.573c1.497,-0 2.729,1.232 2.729,2.729c0,0.052 -0.001,0.105 -0.004,0.157l-1.363,21.922l8.175,8.174c0.516,0.512 0.806,1.209 0.806,1.935c0,1.491 -1.223,2.719 -2.713,2.725Zm74.212,-49.593c-0.088,0.009 -0.177,0.013 -0.265,0.013c-1.502,-0 -2.738,-1.236 -2.738,-2.738c-0,-1.402 1.077,-2.589 2.472,-2.725l16.458,-3.297l-25.328,-25.314l-21.444,3.27c-0.138,0.02 -0.277,0.031 -0.416,0.031c-1.512,-0 -2.757,-1.244 -2.757,-2.756c0,-1.356 1.001,-2.521 2.341,-2.725l22.808,-3.515c0.859,-0.13 1.731,0.158 2.343,0.776l29.974,29.974c0.51,0.511 0.797,1.204 0.797,1.926c0,1.282 -0.905,2.4 -2.159,2.666l-21.445,4.291c-0.208,0.068 -0.423,0.11 -0.641,0.123Zm-115.086,-36.364c-0.719,0.001 -1.41,-0.283 -1.921,-0.79c-0.511,-0.511 -0.799,-1.205 -0.799,-1.928c0,-0.723 0.288,-1.417 0.799,-1.928l27.781,-27.821c0.516,-0.572 1.252,-0.899 2.022,-0.899c1.495,0 2.725,1.23 2.725,2.725c-0,0.767 -0.324,1.5 -0.892,2.016l-27.78,27.835c-0.514,0.51 -1.211,0.794 -1.935,0.79Zm37.304,22.412c-4.295,0.009 -8.42,-1.705 -11.444,-4.755c-6.251,-6.296 -6.251,-16.606 -0,-22.902c3.034,-3.033 7.153,-4.739 11.443,-4.739c8.642,-0 15.837,6.921 16.173,15.557c0.002,1.449 -1.154,2.659 -2.602,2.724c-0.042,0.002 -0.083,0.003 -0.125,0.003c-1.45,0 -2.659,-1.157 -2.722,-2.605c-0.253,-5.705 -5.015,-10.261 -10.726,-10.261c-5.89,-0 -10.736,4.846 -10.736,10.736c-0,5.889 4.846,10.736 10.736,10.736c2.847,-0 5.579,-1.132 7.592,-3.145c0.516,-0.572 1.252,-0.899 2.022,-0.899c1.495,0 2.725,1.23 2.725,2.725c0,0.767 -0.324,1.5 -0.891,2.016c-3.014,3.073 -7.141,4.808 -11.445,4.809Z" style="fill:#102a43;fill-rule:nonzero;"/><path d="M94.248,93.569c1.182,-1.18 9.146,4.878 17.775,13.519c8.629,8.641 14.676,16.614 13.495,17.794c-1.181,1.179 -9.146,-4.878 -17.775,-13.52c-8.629,-8.641 -14.676,-16.614 -13.495,-17.793Z" style="fill:#102a43;"/><path d="M171.434,180.161c-9.066,0.119 -17.726,-3.828 -23.584,-10.75c-0.418,1.477 -0.683,2.992 -0.79,4.523c-0.073,0.749 -0.453,1.435 -1.049,1.894c-0.596,0.459 -1.356,0.651 -2.098,0.531c-0.286,0 -7.044,-1.212 -9.292,-10.504c-0.051,-0.21 -0.077,-0.425 -0.077,-0.64c0,-1.496 1.231,-2.727 2.727,-2.727c1.255,0 2.355,0.866 2.65,2.086c0.355,1.748 1.152,3.376 2.316,4.728c0.64,-2.82 1.812,-5.3 4.183,-5.94c2.037,-0.412 4.131,0.452 5.286,2.18c5.374,6.444 13.593,9.842 21.949,9.074c-6.812,-14.334 -19.347,-17.508 -19.469,-17.535c-0.898,-0.216 -1.628,-0.873 -1.935,-1.744c-0.309,-0.871 -0.155,-1.843 0.409,-2.575c3.488,-4.483 9.183,-5.45 13.025,-5.654c-3.434,-9.538 -10.9,-9.674 -11.091,-9.674c-1.495,0 -2.724,-1.23 -2.724,-2.725c-0,-1.495 1.229,-2.724 2.724,-2.724c4.755,-0 14.551,3.583 17.413,17.439c0.038,0.184 0.058,0.372 0.058,0.561c-0,1.494 -1.23,2.724 -2.725,2.724c-0.133,0 -0.267,-0.009 -0.399,-0.029c-2.896,-0.357 -5.836,-0.031 -8.583,0.954c9.257,4.513 16.362,12.511 19.755,22.235c0.269,0.722 0.219,1.524 -0.136,2.207c-0.362,0.68 -0.996,1.176 -1.744,1.363c-2.231,0.503 -4.512,0.745 -6.799,0.722Zm-15.709,-146.068c0,-0.464 -0.79,-0.873 -2.044,-1.172c-1.608,-0.373 -2.869,-1.634 -3.242,-3.243c-0.286,-1.254 -0.709,-2.044 -1.172,-2.044c-0.463,0 -0.885,0.79 -1.171,2.044c-0.373,1.609 -1.634,2.87 -3.243,3.243c-1.254,0.286 -2.044,0.708 -2.044,1.172c0,0.463 0.79,0.885 2.044,1.171c1.596,0.369 2.853,1.611 3.243,3.202c0.299,1.267 0.708,2.057 1.171,2.057c0.463,0 0.886,-0.79 1.172,-2.057c0.372,-1.607 1.634,-2.864 3.242,-3.229c1.254,-0.259 2.044,-0.681 2.044,-1.144Zm-83.831,132.034c-0,-0.749 -1.267,-1.362 -3.297,-1.893c-2.596,-0.606 -4.627,-2.647 -5.218,-5.246c-0.478,-2.03 -1.145,-3.297 -1.894,-3.297c-0.75,0 -1.431,1.267 -1.894,3.297c-0.598,2.597 -2.635,4.634 -5.232,5.232c-2.03,0.477 -3.297,1.158 -3.297,1.907c-0,0.75 1.267,1.363 3.297,1.894c2.596,0.602 4.631,2.636 5.232,5.232c0.463,2.03 1.144,3.311 1.894,3.311c0.749,-0 1.362,-1.281 1.894,-3.311c0.596,-2.593 2.626,-4.629 5.218,-5.232c2.03,-0.477 3.297,-1.144 3.297,-1.894Zm108.655,-46.037c0,-0.504 -0.845,-0.953 -2.207,-1.267c-1.736,-0.404 -3.097,-1.765 -3.501,-3.501c-0.314,-1.363 -0.764,-2.221 -1.268,-2.221c-0.504,-0 -0.953,0.858 -1.267,2.221c-0.395,1.746 -1.758,3.12 -3.501,3.528c-1.363,0.314 -2.208,0.763 -2.208,1.267c0,0.505 0.845,0.954 2.208,1.268c1.76,0.376 3.152,1.737 3.569,3.488c0.314,1.362 0.763,2.207 1.267,2.207c0.505,-0 0.954,-0.845 1.268,-2.207c0.396,-1.743 1.76,-3.112 3.501,-3.516c1.294,-0.313 2.139,-0.763 2.139,-1.267Zm-72.401,-32.576c-0.355,0 -0.707,-0.069 -1.035,-0.204c-0.333,-0.137 -0.635,-0.341 -0.886,-0.6c-0.511,-0.508 -0.8,-1.2 -0.803,-1.921c-0.021,-0.177 -0.021,-0.355 -0,-0.531c0.035,-0.177 0.085,-0.35 0.149,-0.518c0.073,-0.161 0.16,-0.316 0.259,-0.463c0.203,-0.293 0.456,-0.547 0.75,-0.749c0.151,-0.1 0.311,-0.186 0.477,-0.259c0.161,-0.071 0.33,-0.121 0.504,-0.15c0.89,-0.175 1.811,0.107 2.452,0.749c0.132,0.12 0.246,0.258 0.341,0.409c0.104,0.143 0.191,0.299 0.259,0.463c0.07,0.166 0.12,0.34 0.149,0.518c0.021,0.176 0.021,0.354 0,0.531c-0.003,0.721 -0.292,1.413 -0.803,1.921c-0.12,0.132 -0.258,0.247 -0.409,0.341c-0.144,0.104 -0.299,0.191 -0.464,0.259c-0.334,0.13 -0.689,0.199 -1.048,0.204l0.108,0Zm-1.362,-47.617c-0.355,-0 -0.707,-0.07 -1.035,-0.205c-0.332,-0.139 -0.633,-0.343 -0.886,-0.6c-0.258,-0.245 -0.463,-0.542 -0.6,-0.871c-0.136,-0.333 -0.206,-0.69 -0.204,-1.05c-0.013,-0.176 -0.013,-0.354 0,-0.531c0.04,-0.177 0.095,-0.35 0.164,-0.518c0.068,-0.161 0.15,-0.316 0.245,-0.463c0.098,-0.148 0.213,-0.285 0.341,-0.409c0.12,-0.131 0.257,-0.246 0.408,-0.34c0.152,-0.1 0.311,-0.186 0.477,-0.259c0.163,-0.064 0.332,-0.114 0.504,-0.15c0.351,-0.07 0.712,-0.07 1.063,0c0.176,0.036 0.349,0.086 0.518,0.15c0.161,0.073 0.316,0.16 0.463,0.259c0.153,0.097 0.294,0.212 0.422,0.34c0.124,0.128 0.238,0.264 0.341,0.409c0.095,0.147 0.177,0.302 0.245,0.463c0.071,0.167 0.121,0.34 0.15,0.518c0.02,0.177 0.02,0.355 0,0.531c0.002,0.36 -0.068,0.717 -0.204,1.05c-0.424,1.014 -1.421,1.678 -2.521,1.676l0.109,-0Zm-66.569,78.953c-1.491,-0.006 -2.714,-1.234 -2.714,-2.724c0,-0.72 0.285,-1.411 0.793,-1.921c0.12,-0.132 0.257,-0.247 0.408,-0.341c0.144,-0.105 0.3,-0.191 0.464,-0.259c0.166,-0.07 0.339,-0.121 0.517,-0.15c0.891,-0.174 1.812,0.107 2.453,0.75c0.507,0.51 0.792,1.201 0.792,1.921c0,1.49 -1.223,2.718 -2.713,2.724Z" style="fill:#102a43;fill-rule:nonzero;"/><ellipse cx="161.516" cy="57.486" rx="7.48" ry="7.494" style="fill:#84c5f4;"/><path d="M165.358,63.848c-2.71,0.007 -5.313,-1.073 -7.221,-2.997c-3.937,-3.973 -3.937,-10.47 -0,-14.442c1.911,-1.902 4.501,-2.97 7.197,-2.97c5.598,-0 10.205,4.606 10.205,10.204c-0,5.59 -4.592,10.192 -10.181,10.205Zm-0,-14.987c-2.622,0.003 -4.777,2.161 -4.777,4.782c-0,1.274 0.508,2.496 1.412,3.393c1.865,1.79 4.851,1.79 6.716,-0c0.915,-0.897 1.432,-2.125 1.432,-3.406c-0,-2.616 -2.153,-4.769 -4.769,-4.769l-0.014,0Z" style="fill:#102a43;fill-rule:nonzero;"/><ellipse cx="48.337" cy="144.791" rx="7.48" ry="7.494" style="fill:#f8e3a3;"/><path d="M44.495,151.154c-2.707,0.009 -5.306,-1.072 -7.208,-2.997c-3.95,-3.966 -3.95,-10.476 0,-14.442c1.91,-1.919 4.508,-2.999 7.215,-2.999c2.707,0 5.305,1.08 7.214,2.999c3.936,3.972 3.936,10.469 -0,14.442c-1.909,1.923 -4.511,3.004 -7.221,2.997Zm-0,-14.987c-1.254,-0.011 -2.462,0.48 -3.352,1.363c-0.908,0.9 -1.419,2.127 -1.419,3.406c-0,1.278 0.511,2.506 1.419,3.406c1.866,1.79 4.852,1.79 6.717,-0c0.908,-0.9 1.42,-2.128 1.42,-3.406c-0,-1.279 -0.512,-2.506 -1.42,-3.406c-0.895,-0.884 -2.107,-1.375 -3.365,-1.363Z" style="fill:#102a43;fill-rule:nonzero;"/></g></g></svg>