<?xml version="1.0" encoding="UTF-8" standalone="no"?>
<!DOCTYPE svg PUBLIC "-//W3C//DTD SVG 1.1//EN" "http://www.w3.org/Graphics/SVG/1.1/DTD/svg11.dtd">
<svg width="100%" height="100%" viewBox="0 0 534 534" version="1.1" xmlns="http://www.w3.org/2000/svg" xmlns:xlink="http://www.w3.org/1999/xlink" xml:space="preserve" xmlns:serif="http://www.serif.com/" style="fill-rule:evenodd;clip-rule:evenodd;stroke-linejoin:round;stroke-miterlimit:2;">
    <g>
        <path d="M356.958,424.083c5.667,23.334 32.167,56.084 32.167,56.084c1.5,-16.084 4.75,-21.875 7.917,-23.292c-8.334,-11.292 -21.625,-31.417 -25.5,-47.292l-14.584,14.5Z" style="fill:#f7931e;fill-rule:nonzero;"/>
        <path d="M435.667,406.75c2.173,0.599 4.315,1.308 6.416,2.125c7.671,-1.697 15.573,-2.092 23.375,-1.167c-0.957,-4.865 -2.352,-9.635 -4.166,-14.25c-9.933,0.961 -19.119,5.726 -25.625,13.292Z" style="fill:#fc3535;fill-rule:nonzero;"/>
        <path d="M419.625,445.833c0,0 -11.042,-15.125 -15.25,13.667c0.256,0.275 0.493,0.567 0.708,0.875c34.875,42.208 85.5,29.167 85.5,29.167c-1.616,-4.346 -3.494,-8.59 -5.625,-12.709c-25.292,-0.086 -49.269,-11.463 -65.333,-31Z" style="fill:#f7931e;fill-rule:nonzero;"/>
        <path d="M397.042,456.875c3.875,5.333 6.583,8.708 6.583,8.708c0.194,-2.166 0.444,-4.166 0.75,-6c-1.333,-1.25 -4.375,-4.083 -7.333,-2.708Z" style="fill:#fc3535;fill-rule:nonzero;"/>
        <path d="M419.625,445.833c16.039,19.584 40.02,31.008 65.333,31.125c-12.692,-26.565 -35.801,-46.748 -63.833,-55.75c5.321,-6.412 12.672,-10.822 20.833,-12.5c-2.101,-0.817 -4.243,-1.526 -6.416,-2.125c6.475,-7.538 15.612,-12.3 25.5,-13.291c-13.084,-32.542 -40.75,-32.459 -40.75,-32.459l-48.75,48.75c3.875,15.875 17.291,36 25.5,47.292c3.041,-1.375 6,1.25 7.333,2.708c4.208,-28.791 15.25,-13.75 15.25,-13.75Zm-161.667,-0.708l9.75,-57.875c-0.958,-0.542 -72.875,-41.083 -99.708,-63.542l0,32.042l89.958,89.375Z" style="fill:#f60948;fill-rule:nonzero;"/>
        <path d="M411.583,260.958l-23.125,5.459l-73.5,-105.125l68.25,-5.25l84,78.833l10.5,10.5l-66.125,15.583" style="fill:#c5073a;fill-rule:nonzero;"/>
        <path d="M376.208,323.542l22.459,-21.292c-4.167,-12.958 -59.792,-170.292 -235.917,-240.833l-80.625,72.666c0.208,0.417 0.458,1.042 0.708,1.584l57.792,-52.084c173.083,69.375 229.625,222.5 235.583,239.959Z" style="fill:#006b84;fill-rule:nonzero;"/>
        <path d="M379.167,329.333l-47.917,42.75l36,36l45.25,-45.416l-33.333,-33.334Z" style="fill:#f7931e;fill-rule:nonzero;"/>
        <path d="M429.875,344.542l-32.75,-37.459l-66.167,64.709l0.292,0.291l42.125,-41.208l34.958,35.958l21.542,-22.291Z" style="fill:#bf6819;fill-rule:nonzero;"/>
        <path d="M131.708,75.25c-19.954,-9.125 -41.785,-13.408 -63.708,-12.5c1.211,21.515 4.561,42.857 10,63.708c5.439,20.852 17.833,-13.958 36.25,-29.958c6.778,-6.238 12.654,-13.39 17.458,-21.25Z" style="fill:#f60948;fill-rule:nonzero;"/>
        <path d="M152.292,56.167c-57.75,-15.792 -83.75,-13.25 -83.75,-13.25c-0.641,6.576 -0.822,13.19 -0.542,19.791c21.548,2.378 42.859,6.559 63.708,12.5c-4.804,7.86 -10.68,15.012 -17.458,21.25c16.333,-14.25 33.083,-30.416 38.042,-40.291Z" style="fill:#c5073a;fill-rule:nonzero;"/>
        <path d="M140.625,83.583l-57.792,52.084c10.917,25 89.459,194.708 240,238.458l53.375,-50.583c-1.208,-19.375 -51.208,-173.542 -235.583,-239.959Zm48.375,128.917c-3.406,1.024 -6.943,1.544 -10.5,1.542c-20.183,0 -36.792,-16.609 -36.792,-36.792c0,-20.183 16.609,-36.792 36.792,-36.792c3.557,-0.002 7.094,0.518 10.5,1.542c-15.535,4.644 -26.253,19.036 -26.253,35.25c0,16.214 10.718,30.606 26.253,35.25Z" style="fill:#15b2cc;fill-rule:nonzero;"/>
        <ellipse cx="189" cy="177.042" rx="26.25" ry="35.25" style="fill:#5aefff;"/>
        <path d="M299.5,413.167c-1.104,0.004 -2.197,-0.223 -3.208,-0.667c-52.73,-22.804 -100.576,-55.555 -140.917,-96.458c-22.542,-22.506 -42.755,-47.228 -60.333,-73.792c-0.849,-1.336 -1.299,-2.886 -1.299,-4.468c0,-4.571 3.761,-8.333 8.333,-8.333c2.751,0 5.331,1.362 6.882,3.634c16.957,25.597 36.459,49.412 58.209,71.084c37.515,38.047 81.747,68.83 130.458,90.791l96.833,-97c-21.912,-48.748 -52.62,-93.045 -90.583,-130.666c-75.458,-75.625 -172,-119.917 -253.875,-117.292c-1.667,49.208 13.792,105.167 43.875,158.333c0.729,1.268 1.112,2.705 1.112,4.167c0,4.587 -3.775,8.362 -8.362,8.362c-2.99,0 -5.76,-1.603 -7.25,-4.195c-33.333,-58.792 -49.375,-120.834 -45.625,-175c0.27,-4.213 3.7,-7.59 7.917,-7.792c87.916,-6.125 193.041,40.5 274.083,121.667c40.833,40.419 73.511,88.319 96.25,141.083c1.321,3.108 0.627,6.726 -1.75,9.125l-104.833,104.958c-1.566,1.575 -3.697,2.46 -5.917,2.459Z" style="fill:#222739;fill-rule:nonzero;"/>
        <path d="M344.125,443.417c-2.206,-0.01 -4.32,-0.894 -5.875,-2.459l-16.958,-16.958c-1.563,-1.563 -2.442,-3.685 -2.442,-5.896c0,-4.574 3.763,-8.338 8.338,-8.338c2.21,0 4.332,0.879 5.895,2.442l11.042,11.084l78.625,-78.75l-31.542,-31.584c-1.382,-1.531 -2.148,-3.522 -2.148,-5.584c0,-4.572 3.762,-8.334 8.333,-8.334c2.073,0 4.073,0.774 5.607,2.168l37.5,37.5c1.564,1.563 2.444,3.685 2.444,5.896c0,2.211 -0.88,4.334 -2.444,5.896l-90.5,90.458c-1.565,1.575 -3.697,2.46 -5.917,2.459l0.042,0Zm-91.417,41.583c-2.205,-0.009 -4.32,-0.894 -5.875,-2.458l-28.166,-28.375c-1.736,-1.579 -2.727,-3.819 -2.727,-6.166c0,-4.571 3.762,-8.333 8.333,-8.333c2.357,0 4.606,1 6.185,2.749l17.125,17.166l13.584,-67.916c0.637,-4.033 4.148,-7.033 8.231,-7.033c4.571,0 8.333,3.762 8.333,8.333c0,0.657 -0.077,1.311 -0.231,1.95l-16.667,83.333c-0.603,3.005 -2.817,5.443 -5.75,6.333c-0.765,0.26 -1.566,0.4 -2.375,0.417Zm-46.041,-46.083c-0.003,0 -0.005,0 -0.007,0c-4.572,0 -8.333,-3.762 -8.333,-8.334c0,-2.221 0.888,-4.352 2.465,-5.916c1.56,-1.548 3.671,-2.417 5.868,-2.417c4.572,0 8.333,3.762 8.333,8.333c0,4.569 -3.757,8.33 -8.326,8.334Zm-17.875,-18.084c-2.206,-0.009 -4.32,-0.894 -5.875,-2.458l-27.542,-27.583c-1.677,-1.683 -2.557,-4.004 -2.417,-6.375l4.167,-70.834c0.252,-4.391 3.935,-7.868 8.333,-7.868c4.579,0 8.347,3.768 8.347,8.348c0,0.159 -0.004,0.319 -0.013,0.479l-4.167,67.041l25,25c1.577,1.564 2.465,3.696 2.465,5.917c0,4.558 -3.74,8.314 -8.298,8.333Zm226.958,-151.666c-0.27,0.026 -0.541,0.039 -0.812,0.039c-4.594,0 -8.373,-3.779 -8.373,-8.373c0,-4.287 3.293,-7.917 7.56,-8.333l50.333,-10.083l-77.458,-77.417l-65.583,10c-0.421,0.064 -0.846,0.096 -1.271,0.096c-4.625,0 -8.43,-3.805 -8.43,-8.429c0,-4.147 3.06,-7.709 7.159,-8.334l69.75,-10.75c2.629,-0.397 5.295,0.486 7.167,2.375l91.666,91.667c1.561,1.562 2.438,3.682 2.438,5.89c0,3.921 -2.768,7.338 -6.604,8.152l-65.584,13.125c-0.634,0.208 -1.292,0.334 -1.958,0.375Zm-351.958,-111.209c-2.2,0.002 -4.313,-0.867 -5.875,-2.416c-1.565,-1.563 -2.444,-3.685 -2.444,-5.896c0,-2.211 0.879,-4.334 2.444,-5.896l84.958,-85.083c1.579,-1.749 3.829,-2.749 6.185,-2.749c4.572,0 8.333,3.762 8.333,8.333c0,2.347 -0.99,4.587 -2.726,6.166l-84.959,85.125c-1.572,1.559 -3.702,2.429 -5.916,2.416Zm114.083,68.542c-13.136,0.025 -25.749,-5.216 -35,-14.542c-19.115,-19.255 -19.115,-50.786 0,-70.041c9.279,-9.276 21.876,-14.493 34.996,-14.493c26.429,0 48.435,21.167 49.462,47.576c0.005,4.433 -3.529,8.134 -7.958,8.333c-0.128,0.006 -0.255,0.009 -0.383,0.009c-4.433,0 -8.131,-3.538 -8.325,-7.967c-0.772,-17.448 -15.337,-31.382 -32.802,-31.382c-18.011,0 -32.833,14.821 -32.833,32.833c0,18.012 14.822,32.834 32.833,32.834c8.706,0 17.063,-3.462 23.218,-9.618c1.58,-1.749 3.829,-2.749 6.185,-2.749c4.572,0 8.334,3.762 8.334,8.333c0,2.347 -0.991,4.587 -2.727,6.166c-9.215,9.399 -21.837,14.703 -35,14.708Z" style="fill:#222739;fill-rule:nonzero;"/>
        <path d="M236.074,235.183c3.612,-3.607 27.97,14.919 54.359,41.345c26.39,26.426 44.882,50.81 41.269,54.417c-3.612,3.608 -27.97,-14.918 -54.359,-41.345c-26.39,-26.426 -44.882,-50.809 -41.269,-54.417Z" style="fill:#222739;"/>
        <path d="M472.125,500c-27.728,0.366 -54.212,-11.706 -72.125,-32.875c-1.28,4.516 -2.09,9.151 -2.417,13.833c-0.223,2.29 -1.385,4.388 -3.208,5.792c-1.822,1.404 -4.146,1.992 -6.417,1.625c-0.875,0 -21.541,-3.708 -28.416,-32.125c-0.155,-0.641 -0.234,-1.299 -0.234,-1.958c0,-4.574 3.764,-8.338 8.338,-8.338c3.837,0 7.203,2.649 8.104,6.379c1.085,5.346 3.524,10.325 7.083,14.459c1.959,-8.625 5.542,-16.209 12.792,-18.167c6.229,-1.258 12.634,1.384 16.167,6.667c16.434,19.709 41.57,30.101 67.125,27.75c-20.834,-43.834 -59.167,-53.542 -59.542,-53.625c-2.746,-0.659 -4.978,-2.67 -5.917,-5.334c-0.946,-2.664 -0.475,-5.635 1.25,-7.875c10.667,-13.708 28.084,-16.666 39.834,-17.291c-10.5,-29.167 -33.334,-29.584 -33.917,-29.584c-4.572,0 -8.333,-3.761 -8.333,-8.333c0,-4.572 3.761,-8.333 8.333,-8.333c14.542,0 44.5,10.958 53.25,53.333c0.119,0.564 0.178,1.139 0.178,1.715c0,4.571 -3.761,8.333 -8.333,8.333c-0.408,0 -0.816,-0.03 -1.22,-0.09c-8.857,-1.093 -17.849,-0.094 -26.25,2.917c28.311,13.803 50.041,38.262 60.417,68c0.821,2.207 0.669,4.661 -0.417,6.75c-1.108,2.08 -3.047,3.595 -5.333,4.167c-6.822,1.54 -13.799,2.281 -20.792,2.208Zm-48.042,-446.708c0,-1.417 -2.416,-2.667 -6.25,-3.584c-4.919,-1.14 -8.776,-4.997 -9.916,-9.916c-0.875,-3.834 -2.167,-6.25 -3.584,-6.25c-1.416,0 -2.708,2.416 -3.583,6.25c-1.14,4.919 -4.997,8.776 -9.917,9.916c-3.833,0.875 -6.25,2.167 -6.25,3.584c0,1.416 2.417,2.708 6.25,3.583c4.882,1.129 8.727,4.925 9.917,9.792c0.917,3.875 2.167,6.291 3.583,6.291c1.417,0 2.709,-2.416 3.584,-6.291c1.136,-4.914 4.998,-8.76 9.916,-9.875c3.834,-0.792 6.25,-2.084 6.25,-3.5Zm-256.375,403.791c0,-2.291 -3.875,-4.166 -10.083,-5.791c-7.938,-1.851 -14.149,-8.095 -15.958,-16.042c-1.459,-6.208 -3.5,-10.083 -5.792,-10.083c-2.292,0 -4.375,3.875 -5.792,10.083c-1.829,7.942 -8.057,14.17 -16,16c-6.208,1.458 -10.083,3.542 -10.083,5.833c0,2.292 3.875,4.167 10.083,5.792c7.938,1.839 14.162,8.062 16,16c1.417,6.208 3.5,10.125 5.792,10.125c2.292,0 4.167,-3.917 5.792,-10.125c1.823,-7.931 8.031,-14.156 15.958,-16c6.208,-1.458 10.083,-3.5 10.083,-5.792Zm332.292,-140.791c0,-1.542 -2.583,-2.917 -6.75,-3.875c-5.309,-1.237 -9.472,-5.399 -10.708,-10.709c-0.959,-4.166 -2.334,-6.791 -3.875,-6.791c-1.542,0 -2.917,2.625 -3.875,6.791c-1.209,5.341 -5.377,9.542 -10.709,10.792c-4.166,0.958 -6.75,2.333 -6.75,3.875c0,1.542 2.584,2.917 6.75,3.875c5.383,1.15 9.642,5.312 10.917,10.667c0.958,4.166 2.333,6.75 3.875,6.75c1.542,0 2.917,-2.584 3.875,-6.75c1.214,-5.33 5.383,-9.516 10.708,-10.75c3.959,-0.959 6.542,-2.334 6.542,-3.875Zm-221.417,-99.625c-1.086,0 -2.162,-0.213 -3.166,-0.625c-1.02,-0.418 -1.942,-1.043 -2.709,-1.834c-1.564,-1.555 -2.449,-3.669 -2.458,-5.875c-0.062,-0.54 -0.062,-1.085 0,-1.625c0.109,-0.539 0.262,-1.069 0.458,-1.583c0.223,-0.494 0.488,-0.968 0.792,-1.417c0.619,-0.896 1.395,-1.672 2.292,-2.291c0.463,-0.305 0.951,-0.569 1.458,-0.792c0.493,-0.215 1.011,-0.369 1.542,-0.458c2.723,-0.534 5.54,0.327 7.5,2.291c0.403,0.367 0.753,0.788 1.041,1.25c0.32,0.439 0.586,0.915 0.792,1.417c0.215,0.508 0.369,1.039 0.458,1.583c0.062,0.54 0.062,1.085 0,1.625c-0.009,2.206 -0.894,4.32 -2.458,5.875c-0.367,0.403 -0.787,0.754 -1.25,1.042c-0.439,0.32 -0.915,0.585 -1.417,0.792c-1.023,0.399 -2.11,0.61 -3.208,0.625l0.333,0Zm-4.166,-145.625c-1.087,0 -2.162,-0.213 -3.167,-0.625c-1.015,-0.427 -1.936,-1.05 -2.708,-1.834c-0.79,-0.751 -1.415,-1.66 -1.834,-2.666c-0.418,-1.018 -0.63,-2.108 -0.625,-3.209c-0.041,-0.541 -0.041,-1.084 0,-1.625c0.123,-0.54 0.29,-1.07 0.5,-1.583c0.209,-0.493 0.46,-0.967 0.75,-1.417c0.301,-0.453 0.651,-0.872 1.042,-1.25c0.367,-0.403 0.787,-0.753 1.25,-1.041c0.463,-0.305 0.951,-0.569 1.458,-0.792c0.5,-0.196 1.016,-0.35 1.542,-0.458c1.073,-0.214 2.177,-0.214 3.25,0c0.54,0.108 1.069,0.262 1.583,0.458c0.494,0.223 0.968,0.488 1.417,0.792c0.468,0.298 0.901,0.647 1.292,1.041c0.379,0.389 0.728,0.807 1.041,1.25c0.291,0.45 0.542,0.924 0.75,1.417c0.216,0.508 0.37,1.039 0.459,1.583c0.061,0.54 0.061,1.085 0,1.625c0.005,1.101 -0.207,2.191 -0.625,3.209c-1.295,3.103 -4.346,5.132 -7.709,5.125l0.334,0Zm-203.584,241.458c-4.558,-0.019 -8.298,-3.775 -8.298,-8.333c0,-2.201 0.872,-4.315 2.423,-5.875c0.367,-0.403 0.788,-0.754 1.25,-1.042c0.439,-0.32 0.915,-0.585 1.417,-0.792c0.508,-0.215 1.039,-0.369 1.583,-0.458c2.723,-0.533 5.54,0.328 7.5,2.292c1.552,1.56 2.424,3.674 2.424,5.875c0,4.558 -3.74,8.314 -8.299,8.333Z" style="fill:#222739;fill-rule:nonzero;"/>
        <ellipse cx="441.792" cy="124.833" rx="22.875" ry="22.917" style="fill:#15b2cc;"/>
        <path d="M453.542,144.292c-8.288,0.02 -16.247,-3.284 -22.084,-9.167c-12.038,-12.149 -12.038,-32.018 0,-44.167c5.846,-5.815 13.765,-9.083 22.01,-9.083c17.121,0 31.209,14.088 31.209,31.208c0,17.093 -14.043,31.169 -31.135,31.209Zm0,-45.834c-8.017,0.009 -14.609,6.608 -14.609,14.625c0,3.894 1.555,7.631 4.317,10.375c5.705,5.475 14.837,5.475 20.542,0c2.798,-2.742 4.377,-6.499 4.377,-10.416c0,-8.001 -6.583,-14.584 -14.583,-14.584c-0.015,0 -0.03,0 -0.044,0Z" style="fill:#222739;fill-rule:nonzero;"/>
        <ellipse cx="95.667" cy="391.833" rx="22.875" ry="22.917" style="fill:#f7931e;"/>
        <path d="M83.917,411.292c-8.277,0.028 -16.226,-3.278 -22.042,-9.167c-12.082,-12.129 -12.082,-32.037 0,-44.167c5.839,-5.867 13.784,-9.17 22.063,-9.17c8.278,0 16.223,3.303 22.062,9.17c12.038,12.149 12.038,32.018 0,44.167c-5.837,5.883 -13.796,9.187 -22.083,9.167Zm0,-45.834c-3.835,-0.034 -7.528,1.467 -10.25,4.167c-2.778,2.753 -4.342,6.506 -4.342,10.417c0,3.91 1.564,7.663 4.342,10.416c5.705,5.475 14.836,5.475 20.541,0c2.778,-2.753 4.342,-6.506 4.342,-10.416c0,-3.911 -1.564,-7.664 -4.342,-10.417c-2.738,-2.702 -6.444,-4.203 -10.291,-4.167Z" style="fill:#222739;fill-rule:nonzero;"/>
    </g>
</svg>
