<?xml version="1.0" encoding="UTF-8" standalone="no"?>
<!DOCTYPE svg PUBLIC "-//W3C//DTD SVG 1.1//EN" "http://www.w3.org/Graphics/SVG/1.1/DTD/svg11.dtd">
<svg width="100%" height="100%" viewBox="0 0 534 534" version="1.1" xmlns="http://www.w3.org/2000/svg" xmlns:xlink="http://www.w3.org/1999/xlink" xml:space="preserve" xmlns:serif="http://www.serif.com/" style="fill-rule:evenodd;clip-rule:evenodd;stroke-linejoin:round;stroke-miterlimit:2;">
    <g>
        <path d="M356.958,424.083C362.625,447.417 389.125,480.167 389.125,480.167C390.625,464.083 393.875,458.292 397.042,456.875C388.708,445.583 375.417,425.458 371.542,409.583L356.958,424.083Z" style="fill:rgb(247,147,30);fill-rule:nonzero;"/>
        <path d="M435.667,406.75C437.84,407.349 439.982,408.058 442.083,408.875C449.754,407.178 457.656,406.783 465.458,407.708C464.501,402.843 463.106,398.073 461.292,393.458C451.359,394.419 442.173,399.184 435.667,406.75Z" style="fill:rgb(252,53,53);fill-rule:nonzero;"/>
        <path d="M419.625,445.833C419.625,445.833 408.583,430.708 404.375,459.5C404.631,459.775 404.868,460.067 405.083,460.375C439.958,502.583 490.583,489.542 490.583,489.542C488.967,485.196 487.089,480.952 484.958,476.833C459.666,476.747 435.689,465.37 419.625,445.833Z" style="fill:rgb(247,147,30);fill-rule:nonzero;"/>
        <path d="M397.042,456.875C400.917,462.208 403.625,465.583 403.625,465.583C403.819,463.417 404.069,461.417 404.375,459.583C403.042,458.333 400,455.5 397.042,456.875Z" style="fill:rgb(252,53,53);fill-rule:nonzero;"/>
        <path d="M419.625,445.833C435.664,465.417 459.645,476.841 484.958,476.958C472.266,450.393 449.157,430.21 421.125,421.208C426.446,414.796 433.797,410.386 441.958,408.708C439.857,407.891 437.715,407.182 435.542,406.583C442.017,399.045 451.154,394.283 461.042,393.292C447.958,360.75 420.292,360.833 420.292,360.833L371.542,409.583C375.417,425.458 388.833,445.583 397.042,456.875C400.083,455.5 403.042,458.125 404.375,459.583C408.583,430.792 419.625,445.833 419.625,445.833ZM257.958,445.125L267.708,387.25C266.75,386.708 194.833,346.167 168,323.708L168,355.75L257.958,445.125Z" style="fill:rgb(246,9,72);fill-rule:nonzero;"/>
        <path d="M411.583,260.958L388.458,266.417L314.958,161.292L383.208,156.042L467.208,234.875L477.708,245.375L411.583,260.958" style="fill:rgb(197,7,58);fill-rule:nonzero;"/>
        <path d="M376.208,323.542L398.667,302.25C394.5,289.292 338.875,131.958 162.75,61.417L82.125,134.083C82.333,134.5 82.583,135.125 82.833,135.667L140.625,83.583C313.708,152.958 370.25,306.083 376.208,323.542Z" style="fill:rgb(24,111,175);fill-rule:nonzero;"/>
        <path d="M379.167,329.333L331.25,372.083L367.25,408.083L412.5,362.667L379.167,329.333Z" style="fill:rgb(247,147,30);fill-rule:nonzero;"/>
        <path d="M429.875,344.542L397.125,307.083L330.958,371.792L331.25,372.083L373.375,330.875L408.333,366.833L429.875,344.542Z" style="fill:rgb(191,104,25);fill-rule:nonzero;"/>
        <path d="M131.708,75.25C111.754,66.125 89.923,61.842 68,62.75C69.211,84.265 72.561,105.607 78,126.458C83.439,147.31 95.833,112.5 114.25,96.5C121.028,90.262 126.904,83.11 131.708,75.25Z" style="fill:rgb(246,9,72);fill-rule:nonzero;"/>
        <path d="M152.292,56.167C94.542,40.375 68.542,42.917 68.542,42.917C67.901,49.493 67.72,56.107 68,62.708C89.548,65.086 110.859,69.267 131.708,75.208C126.904,83.068 121.028,90.22 114.25,96.458C130.583,82.208 147.333,66.042 152.292,56.167Z" style="fill:rgb(197,7,58);fill-rule:nonzero;"/>
        <path d="M140.625,83.583L82.833,135.667C93.75,160.667 172.292,330.375 322.833,374.125L376.208,323.542C375,304.167 325,150 140.625,83.583ZM189,212.5C185.594,213.524 182.057,214.044 178.5,214.042C158.317,214.042 141.708,197.433 141.708,177.25C141.708,157.067 158.317,140.458 178.5,140.458C182.057,140.456 185.594,140.976 189,142C173.465,146.644 162.747,161.036 162.747,177.25C162.747,193.464 173.465,207.856 189,212.5Z" style="fill:rgb(64,152,215);fill-rule:nonzero;"/>
        <ellipse cx="189" cy="177.042" rx="26.25" ry="35.25" style="fill:rgb(132,197,244);"/>
        <path d="M299.5,413.167C298.396,413.171 297.303,412.944 296.292,412.5C243.562,389.696 195.716,356.945 155.375,316.042C132.833,293.536 112.62,268.814 95.042,242.25C94.193,240.914 93.743,239.364 93.743,237.782C93.743,233.211 97.504,229.449 102.076,229.449C104.827,229.449 107.407,230.811 108.958,233.083C125.915,258.68 145.417,282.495 167.167,304.167C204.682,342.214 248.914,372.997 297.625,394.958L394.458,297.958C372.546,249.21 341.838,204.913 303.875,167.292C228.417,91.667 131.875,47.375 50,50C48.333,99.208 63.792,155.167 93.875,208.333C94.604,209.601 94.987,211.038 94.987,212.5C94.987,217.087 91.212,220.862 86.625,220.862C83.635,220.862 80.865,219.259 79.375,216.667C46.042,157.875 30,95.833 33.75,41.667C34.02,37.454 37.45,34.077 41.667,33.875C129.583,27.75 234.708,74.375 315.75,155.542C356.583,195.961 389.261,243.861 412,296.625C413.321,299.733 412.627,303.351 410.25,305.75L305.417,410.708C303.851,412.283 301.72,413.168 299.5,413.167Z" style="fill:rgb(182,224,254);fill-rule:nonzero;"/>
        <path d="M344.125,443.417C341.919,443.407 339.805,442.523 338.25,440.958L321.292,424C319.729,422.437 318.85,420.315 318.85,418.104C318.85,413.53 322.613,409.766 327.188,409.766C329.398,409.766 331.52,410.645 333.083,412.208L344.125,423.292L422.75,344.542L391.208,312.958C389.826,311.427 389.06,309.436 389.06,307.374C389.06,302.802 392.822,299.04 397.393,299.04C399.466,299.04 401.466,299.814 403,301.208L440.5,338.708C442.064,340.271 442.944,342.393 442.944,344.604C442.944,346.815 442.064,348.938 440.5,350.5L350,440.958C348.435,442.533 346.303,443.418 344.083,443.417L344.125,443.417ZM252.708,485C250.503,484.991 248.388,484.106 246.833,482.542L218.667,454.167C216.931,452.588 215.94,450.348 215.94,448.001C215.94,443.43 219.702,439.668 224.273,439.668C226.63,439.668 228.879,440.668 230.458,442.417L247.583,459.583L261.167,391.667C261.804,387.634 265.315,384.634 269.398,384.634C273.969,384.634 277.731,388.396 277.731,392.967C277.731,393.624 277.654,394.278 277.5,394.917L260.833,478.25C260.23,481.255 258.016,483.693 255.083,484.583C254.318,484.843 253.517,484.983 252.708,485ZM206.667,438.917L206.66,438.917C202.088,438.917 198.327,435.155 198.327,430.583C198.327,428.362 199.215,426.231 200.792,424.667C202.352,423.119 204.463,422.25 206.66,422.25C211.232,422.25 214.993,426.012 214.993,430.583C214.993,435.152 211.236,438.913 206.667,438.917ZM188.792,420.833C186.586,420.824 184.472,419.939 182.917,418.375L155.375,390.792C153.698,389.109 152.818,386.788 152.958,384.417L157.125,313.583C157.377,309.192 161.06,305.715 165.458,305.715C170.037,305.715 173.805,309.483 173.805,314.063C173.805,314.222 173.801,314.382 173.792,314.542L169.625,381.583L194.625,406.583C196.202,408.147 197.09,410.279 197.09,412.5C197.09,417.058 193.35,420.814 188.792,420.833ZM415.75,269.167C415.48,269.193 415.209,269.206 414.938,269.206C410.344,269.206 406.565,265.427 406.565,260.833C406.565,256.546 409.858,252.916 414.125,252.5L464.458,242.417L387,165L321.417,175C320.996,175.064 320.571,175.096 320.146,175.096C315.521,175.096 311.716,171.291 311.716,166.667C311.716,162.52 314.776,158.958 318.875,158.333L388.625,147.583C391.254,147.186 393.92,148.069 395.792,149.958L487.458,241.625C489.019,243.187 489.896,245.307 489.896,247.515C489.896,251.436 487.128,254.853 483.292,255.667L417.708,268.792C417.074,269 416.416,269.126 415.75,269.167ZM63.792,157.958C61.592,157.96 59.479,157.091 57.917,155.542C56.352,153.979 55.473,151.857 55.473,149.646C55.473,147.435 56.352,145.312 57.917,143.75L142.875,58.667C144.454,56.918 146.704,55.918 149.06,55.918C153.632,55.918 157.393,59.68 157.393,64.251C157.393,66.598 156.403,68.838 154.667,70.417L69.708,155.542C68.136,157.101 66.006,157.971 63.792,157.958ZM177.875,226.5C164.739,226.525 152.126,221.284 142.875,211.958C123.76,192.703 123.76,161.172 142.875,141.917C152.154,132.641 164.751,127.424 177.871,127.424C204.3,127.424 226.306,148.591 227.333,175C227.338,179.433 223.804,183.134 219.375,183.333C219.247,183.339 219.12,183.342 218.992,183.342C214.559,183.342 210.861,179.804 210.667,175.375C209.895,157.927 195.33,143.993 177.865,143.993C159.854,143.993 145.032,158.814 145.032,176.826C145.032,194.838 159.854,209.66 177.865,209.66C186.571,209.66 194.928,206.198 201.083,200.042C202.663,198.293 204.912,197.293 207.268,197.293C211.84,197.293 215.602,201.055 215.602,205.626C215.602,207.973 214.611,210.213 212.875,211.792C203.66,221.191 191.038,226.495 177.875,226.5Z" style="fill:rgb(182,224,254);fill-rule:nonzero;"/>
        <path d="M236.074,235.183C239.686,231.576 264.044,250.102 290.433,276.528C316.823,302.954 335.315,327.338 331.702,330.945C328.09,334.553 303.732,316.027 277.343,289.6C250.953,263.174 232.461,238.791 236.074,235.183Z" style="fill:rgb(182,224,254);"/>
        <path d="M472.125,500C444.397,500.366 417.913,488.294 400,467.125C398.72,471.641 397.91,476.276 397.583,480.958C397.36,483.248 396.198,485.346 394.375,486.75C392.553,488.154 390.229,488.742 387.958,488.375C387.083,488.375 366.417,484.667 359.542,456.25C359.387,455.609 359.308,454.951 359.308,454.292C359.308,449.718 363.072,445.954 367.646,445.954C371.483,445.954 374.849,448.603 375.75,452.333C376.835,457.679 379.274,462.658 382.833,466.792C384.792,458.167 388.375,450.583 395.625,448.625C401.854,447.367 408.259,450.009 411.792,455.292C428.226,475.001 453.362,485.393 478.917,483.042C458.083,439.208 419.75,429.5 419.375,429.417C416.629,428.758 414.397,426.747 413.458,424.083C412.512,421.419 412.983,418.448 414.708,416.208C425.375,402.5 442.792,399.542 454.542,398.917C444.042,369.75 421.208,369.333 420.625,369.333C416.053,369.333 412.292,365.572 412.292,361C412.292,356.428 416.053,352.667 420.625,352.667C435.167,352.667 465.125,363.625 473.875,406C473.994,406.564 474.053,407.139 474.053,407.715C474.053,412.286 470.292,416.048 465.72,416.048C465.312,416.048 464.904,416.018 464.5,415.958C455.643,414.865 446.651,415.864 438.25,418.875C466.561,432.678 488.291,457.137 498.667,486.875C499.488,489.082 499.336,491.536 498.25,493.625C497.142,495.705 495.203,497.22 492.917,497.792C486.095,499.332 479.118,500.073 472.125,500ZM424.083,53.292C424.083,51.875 421.667,50.625 417.833,49.708C412.914,48.568 409.057,44.711 407.917,39.792C407.042,35.958 405.75,33.542 404.333,33.542C402.917,33.542 401.625,35.958 400.75,39.792C399.61,44.711 395.753,48.568 390.833,49.708C387,50.583 384.583,51.875 384.583,53.292C384.583,54.708 387,56 390.833,56.875C395.715,58.004 399.56,61.8 400.75,66.667C401.667,70.542 402.917,72.958 404.333,72.958C405.75,72.958 407.042,70.542 407.917,66.667C409.053,61.753 412.915,57.907 417.833,56.792C421.667,56 424.083,54.708 424.083,53.292ZM167.708,457.083C167.708,454.792 163.833,452.917 157.625,451.292C149.687,449.441 143.476,443.197 141.667,435.25C140.208,429.042 138.167,425.167 135.875,425.167C133.583,425.167 131.5,429.042 130.083,435.25C128.254,443.192 122.026,449.42 114.083,451.25C107.875,452.708 104,454.792 104,457.083C104,459.375 107.875,461.25 114.083,462.875C122.021,464.714 128.245,470.937 130.083,478.875C131.5,485.083 133.583,489 135.875,489C138.167,489 140.042,485.083 141.667,478.875C143.49,470.944 149.698,464.719 157.625,462.875C163.833,461.417 167.708,459.375 167.708,457.083ZM500,316.292C500,314.75 497.417,313.375 493.25,312.417C487.941,311.18 483.778,307.018 482.542,301.708C481.583,297.542 480.208,294.917 478.667,294.917C477.125,294.917 475.75,297.542 474.792,301.708C473.583,307.049 469.415,311.25 464.083,312.5C459.917,313.458 457.333,314.833 457.333,316.375C457.333,317.917 459.917,319.292 464.083,320.25C469.466,321.4 473.725,325.562 475,330.917C475.958,335.083 477.333,337.667 478.875,337.667C480.417,337.667 481.792,335.083 482.75,330.917C483.964,325.587 488.133,321.401 493.458,320.167C497.417,319.208 500,317.833 500,316.292ZM278.583,216.667C277.497,216.667 276.421,216.454 275.417,216.042C274.397,215.624 273.475,214.999 272.708,214.208C271.144,212.653 270.259,210.539 270.25,208.333C270.188,207.793 270.188,207.248 270.25,206.708C270.359,206.169 270.512,205.639 270.708,205.125C270.931,204.631 271.196,204.157 271.5,203.708C272.119,202.812 272.895,202.036 273.792,201.417C274.255,201.112 274.743,200.848 275.25,200.625C275.743,200.41 276.261,200.256 276.792,200.167C279.515,199.633 282.332,200.494 284.292,202.458C284.695,202.825 285.045,203.246 285.333,203.708C285.653,204.147 285.919,204.623 286.125,205.125C286.34,205.633 286.494,206.164 286.583,206.708C286.645,207.248 286.645,207.793 286.583,208.333C286.574,210.539 285.689,212.653 284.125,214.208C283.758,214.611 283.338,214.962 282.875,215.25C282.436,215.57 281.96,215.835 281.458,216.042C280.435,216.441 279.348,216.652 278.25,216.667L278.583,216.667ZM274.417,71.042C273.33,71.042 272.255,70.829 271.25,70.417C270.235,69.99 269.314,69.367 268.542,68.583C267.752,67.832 267.127,66.923 266.708,65.917C266.29,64.899 266.078,63.809 266.083,62.708C266.042,62.167 266.042,61.624 266.083,61.083C266.206,60.543 266.373,60.013 266.583,59.5C266.792,59.007 267.043,58.533 267.333,58.083C267.634,57.63 267.984,57.211 268.375,56.833C268.742,56.43 269.162,56.08 269.625,55.792C270.088,55.487 270.576,55.223 271.083,55C271.583,54.804 272.099,54.65 272.625,54.542C273.698,54.328 274.802,54.328 275.875,54.542C276.415,54.65 276.944,54.804 277.458,55C277.952,55.223 278.426,55.488 278.875,55.792C279.343,56.09 279.776,56.439 280.167,56.833C280.546,57.222 280.895,57.64 281.208,58.083C281.499,58.533 281.75,59.007 281.958,59.5C282.174,60.008 282.328,60.539 282.417,61.083C282.478,61.623 282.478,62.168 282.417,62.708C282.422,63.809 282.21,64.899 281.792,65.917C280.497,69.02 277.446,71.049 274.083,71.042L274.417,71.042ZM70.833,312.5C66.275,312.481 62.535,308.725 62.535,304.167C62.535,301.966 63.407,299.852 64.958,298.292C65.325,297.889 65.746,297.538 66.208,297.25C66.647,296.93 67.123,296.665 67.625,296.458C68.133,296.243 68.664,296.089 69.208,296C71.931,295.467 74.748,296.328 76.708,298.292C78.26,299.852 79.132,301.966 79.132,304.167C79.132,308.725 75.392,312.481 70.833,312.5Z" style="fill:rgb(182,224,254);fill-rule:nonzero;"/>
        <ellipse cx="441.792" cy="124.833" rx="22.875" ry="22.917" style="fill:rgb(64,152,215);"/>
        <path d="M453.542,144.292C445.254,144.312 437.295,141.008 431.458,135.125C419.42,122.976 419.42,103.107 431.458,90.958C437.304,85.143 445.223,81.875 453.468,81.875C470.589,81.875 484.677,95.963 484.677,113.083C484.677,130.176 470.634,144.252 453.542,144.292ZM453.542,98.458C445.525,98.467 438.933,105.066 438.933,113.083C438.933,116.977 440.488,120.714 443.25,123.458C448.955,128.933 458.087,128.933 463.792,123.458C466.59,120.716 468.169,116.959 468.169,113.042C468.169,105.041 461.586,98.458 453.586,98.458L453.542,98.458Z" style="fill:rgb(182,224,254);fill-rule:nonzero;"/>
        <ellipse cx="95.667" cy="391.833" rx="22.875" ry="22.917" style="fill:rgb(247,147,30);"/>
        <path d="M83.917,411.292C75.64,411.32 67.691,408.014 61.875,402.125C49.793,389.996 49.793,370.088 61.875,357.958C67.714,352.091 75.659,348.788 83.938,348.788C92.216,348.788 100.161,352.091 106,357.958C118.038,370.107 118.038,389.976 106,402.125C100.163,408.008 92.204,411.312 83.917,411.292ZM83.917,365.458C80.082,365.424 76.389,366.925 73.667,369.625C70.889,372.378 69.325,376.131 69.325,380.042C69.325,383.952 70.889,387.705 73.667,390.458C79.372,395.933 88.503,395.933 94.208,390.458C96.986,387.705 98.55,383.952 98.55,380.042C98.55,376.131 96.986,372.378 94.208,369.625C91.47,366.923 87.764,365.422 83.917,365.458Z" style="fill:rgb(182,224,254);fill-rule:nonzero;"/>
    </g>
</svg>
