<?xml version="1.0" encoding="UTF-8" standalone="no"?>
<!DOCTYPE svg PUBLIC "-//W3C//DTD SVG 1.1//EN" "http://www.w3.org/Graphics/SVG/1.1/DTD/svg11.dtd">
<svg width="100%" height="100%" viewBox="0 0 100 100" version="1.1" xmlns="http://www.w3.org/2000/svg" xmlns:xlink="http://www.w3.org/1999/xlink" xml:space="preserve" xmlns:serif="http://www.serif.com/" style="fill-rule:evenodd;clip-rule:evenodd;stroke-linejoin:round;stroke-miterlimit:2;">
    <g transform="matrix(1,0,0,1,-200,-100)">
        <g id="rocket-light">
            <g transform="matrix(1.27534,0,0,1.14971,186.186,89.7183)">
                <path d="M31.61,18.06C26.821,15.87 21.582,14.842 16.32,15.06C16.611,20.224 17.415,25.346 18.72,30.35C20.025,35.354 23,27 27.42,23.16C29.047,21.663 30.457,19.946 31.61,18.06Z" style="fill:rgb(246,9,72);fill-rule:nonzero;"/>
            </g>
            <g transform="matrix(0.803566,0,0,0.803566,198.583,98.5706)">
                <path d="M71.88,99.16C71.615,99.161 71.353,99.106 71.11,99C58.455,93.527 46.972,85.667 37.29,75.85C31.88,70.449 27.029,64.515 22.81,58.14C22.606,57.819 22.498,57.447 22.498,57.068C22.498,55.971 23.401,55.068 24.498,55.068C25.159,55.068 25.778,55.395 26.15,55.94C30.22,62.083 34.9,67.799 40.12,73C49.124,82.131 59.739,89.519 71.43,94.79L94.67,71.51C89.411,59.81 82.041,49.179 72.93,40.15C54.82,22 31.65,11.37 12,12C11.6,23.81 15.31,37.24 22.53,50C22.705,50.304 22.797,50.649 22.797,51C22.797,52.101 21.891,53.007 20.79,53.007C20.072,53.007 19.408,52.622 19.05,52C11.05,37.89 7.2,23 8.1,10C8.165,8.989 8.988,8.179 10,8.13C31.1,6.66 56.33,17.85 75.78,37.33C85.58,47.031 93.423,58.527 98.88,71.19C99.197,71.936 99.031,72.804 98.46,73.38L73.3,98.57C72.924,98.948 72.413,99.16 71.88,99.16Z" style="fill:white;fill-rule:nonzero;"/>
            </g>
            <g transform="matrix(0.803566,0,0,0.803566,198.583,98.5706)">
                <path d="M82.59,106.42C82.061,106.418 81.553,106.205 81.18,105.83L77.11,101.76C76.735,101.385 76.524,100.876 76.524,100.345C76.524,99.247 77.427,98.344 78.525,98.344C79.056,98.344 79.565,98.555 79.94,98.93L82.59,101.59L101.46,82.69L93.89,75.11C93.558,74.743 93.374,74.265 93.374,73.77C93.374,72.673 94.277,71.77 95.374,71.77C95.872,71.77 96.352,71.955 96.72,72.29L105.72,81.29C106.095,81.665 106.307,82.174 106.307,82.705C106.307,83.236 106.095,83.745 105.72,84.12L84,105.83C83.624,106.208 83.113,106.42 82.58,106.42L82.59,106.42ZM60.65,116.4C60.121,116.398 59.613,116.185 59.24,115.81L52.48,109C52.063,108.621 51.826,108.083 51.826,107.52C51.826,106.423 52.728,105.52 53.826,105.52C54.391,105.52 54.931,105.76 55.31,106.18L59.42,110.3L62.68,94C62.833,93.032 63.676,92.312 64.655,92.312C65.753,92.312 66.655,93.215 66.655,94.312C66.655,94.47 66.637,94.627 66.6,94.78L62.6,114.78C62.455,115.501 61.924,116.086 61.22,116.3C61.036,116.362 60.844,116.396 60.65,116.4ZM49.6,105.34C49.599,105.34 49.599,105.34 49.598,105.34C48.501,105.34 47.598,104.437 47.598,103.34C47.598,102.807 47.812,102.295 48.19,101.92C48.564,101.549 49.071,101.34 49.598,101.34C50.696,101.34 51.598,102.243 51.598,103.34C51.598,104.437 50.697,105.339 49.6,105.34ZM45.31,101C44.781,100.998 44.273,100.785 43.9,100.41L37.29,93.79C36.888,93.386 36.676,92.829 36.71,92.26L37.71,75.26C37.771,74.206 38.654,73.372 39.71,73.372C40.809,73.372 41.713,74.276 41.713,75.375C41.713,75.413 41.712,75.452 41.71,75.49L40.71,91.58L46.71,97.58C47.088,97.955 47.302,98.467 47.302,99C47.302,100.094 46.404,100.995 45.31,101ZM99.78,64.6C99.715,64.606 99.65,64.609 99.585,64.609C98.483,64.609 97.576,63.702 97.576,62.6C97.576,61.571 98.366,60.7 99.39,60.6L111.47,58.18L92.88,39.6L77.14,42C77.039,42.015 76.937,42.023 76.835,42.023C75.725,42.023 74.812,41.11 74.812,40C74.812,39.005 75.546,38.15 76.53,38L93.27,35.42C93.901,35.325 94.541,35.537 94.99,35.99L116.99,57.99C117.365,58.365 117.575,58.874 117.575,59.404C117.575,60.345 116.911,61.165 115.99,61.36L100.25,64.51C100.098,64.56 99.94,64.59 99.78,64.6ZM15.31,37.91C14.782,37.91 14.275,37.702 13.9,37.33C13.525,36.955 13.313,36.446 13.313,35.915C13.313,35.384 13.525,34.875 13.9,34.5L34.29,14.08C34.669,13.66 35.209,13.42 35.774,13.42C36.872,13.42 37.774,14.323 37.774,15.42C37.774,15.983 37.537,16.521 37.12,16.9L16.73,37.33C16.353,37.704 15.841,37.913 15.31,37.91ZM42.69,54.36C39.537,54.366 36.51,53.108 34.29,50.87C29.702,46.249 29.702,38.681 34.29,34.06C36.517,31.834 39.54,30.582 42.689,30.582C49.032,30.582 54.313,35.662 54.56,42C54.561,43.064 53.713,43.952 52.65,44C52.619,44.001 52.589,44.002 52.558,44.002C51.494,44.002 50.607,43.153 50.56,42.09C50.375,37.903 46.879,34.558 42.688,34.558C38.365,34.558 34.808,38.115 34.808,42.438C34.808,46.761 38.365,50.318 42.688,50.318C44.777,50.318 46.783,49.487 48.26,48.01C48.639,47.59 49.179,47.35 49.744,47.35C50.842,47.35 51.744,48.253 51.744,49.35C51.744,49.913 51.507,50.451 51.09,50.83C48.878,53.086 45.849,54.359 42.69,54.36Z" style="fill:white;fill-rule:nonzero;"/>
            </g>
            <g transform="matrix(0.568603,-0.56781,0.56781,0.568603,176.011,153.221)">
                <ellipse cx="68.14" cy="67.94" rx="2.22" ry="16.24" style="fill:white;"/>
            </g>
            <g transform="matrix(0.803566,0,0,0.803566,198.583,98.5706)">
                <path d="M113.31,120C106.655,120.088 100.299,117.191 96,112.11C95.693,113.194 95.498,114.306 95.42,115.43C95.366,115.98 95.087,116.483 94.65,116.82C94.213,117.157 93.655,117.298 93.11,117.21C92.9,117.21 87.94,116.32 86.29,109.5C86.253,109.346 86.234,109.188 86.234,109.03C86.234,107.932 87.137,107.029 88.235,107.029C89.156,107.029 89.964,107.665 90.18,108.56C90.44,109.843 91.026,111.038 91.88,112.03C92.35,109.96 93.21,108.14 94.95,107.67C96.445,107.368 97.982,108.002 98.83,109.27C102.774,114 108.807,116.494 114.94,115.93C109.94,105.41 100.74,103.08 100.65,103.06C99.991,102.902 99.455,102.419 99.23,101.78C99.003,101.141 99.116,100.428 99.53,99.89C102.09,96.6 106.27,95.89 109.09,95.74C106.57,88.74 101.09,88.64 100.95,88.64C99.853,88.64 98.95,87.737 98.95,86.64C98.95,85.543 99.853,84.64 100.95,84.64C104.44,84.64 111.63,87.27 113.73,97.44C113.758,97.575 113.773,97.713 113.773,97.852C113.773,98.949 112.87,99.852 111.773,99.852C111.675,99.852 111.577,99.844 111.48,99.83C109.354,99.568 107.196,99.807 105.18,100.53C111.975,103.843 117.19,109.713 119.68,116.85C119.877,117.38 119.841,117.969 119.58,118.47C119.314,118.969 118.849,119.333 118.3,119.47C116.663,119.84 114.988,120.018 113.31,120ZM101.78,12.79C101.78,12.45 101.2,12.15 100.28,11.93C99.099,11.656 98.174,10.731 97.9,9.55C97.69,8.63 97.38,8.05 97.04,8.05C96.7,8.05 96.39,8.63 96.18,9.55C95.906,10.731 94.981,11.656 93.8,11.93C92.88,12.14 92.3,12.45 92.3,12.79C92.3,13.13 92.88,13.44 93.8,13.65C94.972,13.921 95.894,14.832 96.18,16C96.4,16.93 96.7,17.51 97.04,17.51C97.38,17.51 97.69,16.93 97.9,16C98.173,14.821 99.1,13.898 100.28,13.63C101.2,13.44 101.78,13.13 101.78,12.79ZM40.25,109.7C40.25,109.15 39.32,108.7 37.83,108.31C35.925,107.866 34.434,106.367 34,104.46C33.65,102.97 33.16,102.04 32.61,102.04C32.06,102.04 31.56,102.97 31.22,104.46C30.781,106.366 29.286,107.861 27.38,108.3C25.89,108.65 24.96,109.15 24.96,109.7C24.96,110.25 25.89,110.7 27.38,111.09C29.285,111.531 30.779,113.025 31.22,114.93C31.56,116.42 32.06,117.36 32.61,117.36C33.16,117.36 33.61,116.42 34,114.93C34.438,113.026 35.928,111.532 37.83,111.09C39.32,110.74 40.25,110.25 40.25,109.7ZM120,75.91C120,75.54 119.38,75.21 118.38,74.98C117.106,74.683 116.107,73.684 115.81,72.41C115.58,71.41 115.25,70.78 114.88,70.78C114.51,70.78 114.18,71.41 113.95,72.41C113.66,73.692 112.66,74.7 111.38,75C110.38,75.23 109.76,75.56 109.76,75.93C109.76,76.3 110.38,76.63 111.38,76.86C112.672,77.136 113.694,78.135 114,79.42C114.23,80.42 114.56,81.04 114.93,81.04C115.3,81.04 115.63,80.42 115.86,79.42C116.151,78.141 117.152,77.136 118.43,76.84C119.38,76.61 120,76.28 120,75.91ZM66.86,52C66.599,52 66.341,51.949 66.1,51.85C65.855,51.75 65.634,51.6 65.45,51.41C65.075,51.037 64.862,50.529 64.86,50C64.845,49.87 64.845,49.74 64.86,49.61C64.886,49.481 64.923,49.353 64.97,49.23C65.023,49.111 65.087,48.998 65.16,48.89C65.309,48.675 65.495,48.489 65.71,48.34C65.821,48.267 65.938,48.203 66.06,48.15C66.178,48.098 66.303,48.061 66.43,48.04C67.084,47.912 67.76,48.119 68.23,48.59C68.327,48.678 68.411,48.779 68.48,48.89C68.557,48.995 68.62,49.109 68.67,49.23C68.722,49.352 68.759,49.479 68.78,49.61C68.795,49.74 68.795,49.87 68.78,50C68.778,50.529 68.565,51.037 68.19,51.41C68.102,51.507 68.001,51.591 67.89,51.66C67.785,51.737 67.671,51.8 67.55,51.85C67.304,51.946 67.044,51.997 66.78,52L66.86,52ZM65.86,17.05C65.599,17.05 65.341,16.999 65.1,16.9C64.856,16.798 64.635,16.648 64.45,16.46C64.26,16.28 64.111,16.062 64.01,15.82C63.91,15.576 63.859,15.314 63.86,15.05C63.85,14.92 63.85,14.79 63.86,14.66C63.889,14.53 63.93,14.403 63.98,14.28C64.03,14.162 64.09,14.048 64.16,13.94C64.232,13.831 64.316,13.731 64.41,13.64C64.498,13.543 64.599,13.459 64.71,13.39C64.821,13.317 64.938,13.253 65.06,13.2C65.18,13.153 65.304,13.116 65.43,13.09C65.687,13.039 65.953,13.039 66.21,13.09C66.339,13.116 66.467,13.153 66.59,13.2C66.709,13.253 66.822,13.317 66.93,13.39C67.042,13.462 67.146,13.545 67.24,13.64C67.331,13.733 67.415,13.834 67.49,13.94C67.56,14.048 67.62,14.162 67.67,14.28C67.722,14.402 67.759,14.529 67.78,14.66C67.795,14.79 67.795,14.92 67.78,15.05C67.781,15.314 67.73,15.576 67.63,15.82C67.319,16.565 66.587,17.052 65.78,17.05L65.86,17.05ZM17,75C15.906,74.995 15.008,74.094 15.008,73C15.008,72.472 15.218,71.965 15.59,71.59C15.678,71.493 15.779,71.409 15.89,71.34C15.995,71.263 16.109,71.2 16.23,71.15C16.352,71.098 16.479,71.061 16.61,71.04C17.264,70.912 17.94,71.119 18.41,71.59C18.782,71.965 18.992,72.472 18.992,73C18.992,74.094 18.094,74.995 17,75Z" style="fill:white;fill-rule:nonzero;"/>
            </g>
            <g transform="matrix(0.803566,0,0,0.803566,198.583,98.5706)">
                <path d="M108.85,34.63C106.861,34.635 104.951,33.842 103.55,32.43C100.661,29.514 100.661,24.746 103.55,21.83C104.953,20.434 106.853,19.65 108.832,19.65C112.941,19.65 116.322,23.031 116.322,27.14C116.322,31.242 112.952,34.62 108.85,34.63ZM108.85,23.63C106.926,23.632 105.344,25.216 105.344,27.14C105.344,28.074 105.717,28.971 106.38,29.63C107.749,30.944 109.941,30.944 111.31,29.63C111.982,28.972 112.361,28.07 112.361,27.13C112.361,25.21 110.781,23.63 108.861,23.63C108.857,23.63 108.854,23.63 108.85,23.63Z" style="fill:white;fill-rule:nonzero;"/>
            </g>
            <g transform="matrix(0.803566,0,0,0.803566,198.583,98.5706)">
                <path d="M20.14,98.71C18.154,98.717 16.246,97.923 14.85,96.51C11.95,93.599 11.95,88.821 14.85,85.91C16.251,84.502 18.158,83.709 20.145,83.709C22.132,83.709 24.039,84.502 25.44,85.91C28.329,88.826 28.329,93.594 25.44,96.51C24.039,97.922 22.129,98.715 20.14,98.71ZM20.14,87.71C19.22,87.702 18.333,88.062 17.68,88.71C17.013,89.371 16.638,90.271 16.638,91.21C16.638,92.149 17.013,93.049 17.68,93.71C19.049,95.024 21.241,95.024 22.61,93.71C23.277,93.049 23.652,92.149 23.652,91.21C23.652,90.271 23.277,89.371 22.61,88.71C21.953,88.061 21.063,87.701 20.14,87.71Z" style="fill:white;fill-rule:nonzero;"/>
            </g>
        </g>
    </g>
</svg>
