<?xml version="1.0" encoding="UTF-8" standalone="no"?><!DOCTYPE svg PUBLIC "-//W3C//DTD SVG 1.1//EN" "http://www.w3.org/Graphics/SVG/1.1/DTD/svg11.dtd"><svg width="100%" height="100%" viewBox="0 0 209 209" version="1.1" xmlns="http://www.w3.org/2000/svg" xmlns:xlink="http://www.w3.org/1999/xlink" xml:space="preserve" xmlns:serif="http://www.serif.com/" style="fill-rule:evenodd;clip-rule:evenodd;stroke-linejoin:round;stroke-miterlimit:2;"><g id="square-icon"><rect x="-0" y="0" width="208.333" height="208.333" style="fill:#f1f5f9;"/><g><g><rect x="16.667" y="16.861" width="175" height="175" style="fill:none;"/><path d="M133.647,155.839c1.857,7.647 10.542,18.38 10.542,18.38c0.491,-5.271 1.557,-7.169 2.594,-7.633c-2.731,-3.701 -7.086,-10.296 -8.356,-15.498l-4.78,4.751Z" style="fill:#f8e3a3;fill-rule:nonzero;"/><path d="M159.441,150.159c0.713,0.196 1.415,0.429 2.103,0.697c2.514,-0.557 5.104,-0.686 7.66,-0.383c-0.313,-1.594 -0.77,-3.157 -1.365,-4.67c-3.255,0.315 -6.265,1.877 -8.398,4.356Z" style="fill:#d64545;fill-rule:nonzero;"/><path d="M154.184,162.967c0,0 -3.618,-4.956 -4.997,4.479c0.083,0.09 0.161,0.186 0.232,0.287c11.429,13.832 28.019,9.558 28.019,9.558c-0.529,-1.424 -1.145,-2.815 -1.843,-4.165c-8.289,-0.028 -16.146,-3.756 -21.411,-10.159Z" style="fill:#f8e3a3;fill-rule:nonzero;"/><path d="M146.783,166.586c1.27,1.748 2.158,2.854 2.158,2.854c0.063,-0.71 0.145,-1.366 0.246,-1.967c-0.437,-0.409 -1.434,-1.338 -2.404,-0.887Z" style="fill:#d64545;fill-rule:nonzero;"/><path d="M154.184,162.967c5.256,6.418 13.115,10.162 21.411,10.2c-4.16,-8.705 -11.733,-15.32 -20.919,-18.27c1.744,-2.101 4.153,-3.546 6.827,-4.096c-0.688,-0.268 -1.39,-0.5 -2.103,-0.697c2.122,-2.47 5.117,-4.031 8.357,-4.355c-4.288,-10.665 -13.354,-10.638 -13.354,-10.638l-15.976,15.977c1.27,5.202 5.666,11.797 8.356,15.498c0.997,-0.451 1.967,0.409 2.404,0.887c1.379,-9.435 4.997,-4.506 4.997,-4.506Zm-52.981,-0.232l3.196,-18.966c-0.314,-0.178 -23.883,-13.464 -32.676,-20.824l-0,10.501l29.48,29.289Z" style="fill:#f29b9b;fill-rule:nonzero;"/><path d="M151.549,102.381l-7.579,1.789l-24.087,-34.451l22.367,-1.721l27.528,25.835l3.441,3.441l-21.67,5.107" style="fill:#d64545;fill-rule:nonzero;"/><path d="M139.956,122.891l7.36,-6.978c-1.366,-4.247 -19.595,-55.807 -77.314,-78.925l-26.422,23.814c0.068,0.137 0.15,0.341 0.232,0.519l18.94,-17.069c56.722,22.736 75.251,72.917 77.204,78.639Z" style="fill:#62b0e8;fill-rule:nonzero;"/><path d="M140.926,124.788l-15.704,14.01l11.798,11.798l14.829,-14.884l-10.923,-10.924Z" style="fill:#f8e3a3;fill-rule:nonzero;"/><path d="M157.543,129.773l-10.732,-12.276l-21.684,21.206l0.095,0.095l13.805,-13.504l11.457,11.784l7.059,-7.305Z" style="fill:#f7d070;fill-rule:nonzero;"/><path d="M59.829,41.521c-6.539,-2.99 -13.693,-4.394 -20.878,-4.096c0.397,7.051 1.495,14.045 3.277,20.878c1.783,6.834 5.845,-4.574 11.88,-9.818c2.221,-2.044 4.147,-4.388 5.721,-6.964Z" style="fill:#f29b9b;fill-rule:nonzero;"/><path d="M66.575,35.268c-18.925,-5.176 -27.446,-4.343 -27.446,-4.343c-0.21,2.156 -0.269,4.323 -0.178,6.486c7.062,0.78 14.046,2.15 20.878,4.097c-1.574,2.576 -3.5,4.919 -5.721,6.964c5.353,-4.67 10.842,-9.968 12.467,-13.204Z" style="fill:#d64545;fill-rule:nonzero;"/><path d="M62.752,44.252l-18.94,17.069c3.578,8.193 29.317,63.809 78.652,78.146l17.492,-16.576c-0.396,-6.35 -16.782,-56.873 -77.204,-78.639Zm15.853,42.248c-1.116,0.336 -2.275,0.506 -3.441,0.506c-6.614,-0 -12.057,-5.443 -12.057,-12.058c-0,-6.614 5.443,-12.057 12.057,-12.057c1.166,-0.001 2.325,0.17 3.441,0.505c-5.091,1.522 -8.604,6.239 -8.604,11.552c0,5.314 3.513,10.03 8.604,11.552Z" style="fill:#84c5f4;fill-rule:nonzero;"/><ellipse cx="78.605" cy="74.88" rx="8.603" ry="11.552" style="fill:#b6e0fe;"/><path d="M114.817,152.262c-0.361,0.001 -0.72,-0.073 -1.051,-0.219c-17.28,-7.473 -32.96,-18.206 -46.181,-31.61c-7.387,-7.376 -14.011,-15.478 -19.772,-24.183c-0.278,-0.438 -0.425,-0.946 -0.425,-1.464c-0,-1.498 1.232,-2.731 2.731,-2.731c0.901,-0 1.747,0.446 2.255,1.191c5.557,8.388 11.948,16.193 19.076,23.295c12.294,12.469 26.79,22.557 42.753,29.754l31.734,-31.789c-7.181,-15.975 -17.245,-30.492 -29.686,-42.821c-24.729,-24.783 -56.367,-39.299 -83.199,-38.438c-0.546,16.126 4.52,34.465 14.379,51.888c0.239,0.415 0.364,0.886 0.364,1.365c0,1.504 -1.237,2.741 -2.74,2.741c-0.98,-0 -1.888,-0.526 -2.376,-1.375c-10.924,-19.267 -16.181,-39.599 -14.952,-57.35c0.089,-1.381 1.213,-2.488 2.595,-2.554c28.811,-2.007 63.262,13.273 89.821,39.872c13.381,13.246 24.09,28.944 31.542,46.235c0.433,1.019 0.206,2.205 -0.573,2.991l-34.355,34.396c-0.514,0.516 -1.212,0.806 -1.94,0.806Z" style="fill:#102a43;fill-rule:nonzero;"/><path d="M129.442,162.175c-0.723,-0.003 -1.416,-0.293 -1.926,-0.805l-5.557,-5.558c-0.512,-0.512 -0.8,-1.207 -0.8,-1.932c-0,-1.499 1.233,-2.732 2.732,-2.732c0.724,-0 1.42,0.288 1.932,0.8l3.619,3.632l25.766,-25.807l-10.336,-10.351c-0.453,-0.502 -0.704,-1.154 -0.704,-1.83c-0,-1.498 1.232,-2.731 2.73,-2.731c0.68,-0 1.335,0.254 1.838,0.71l12.289,12.29c0.513,0.512 0.801,1.207 0.801,1.932c0,0.724 -0.288,1.42 -0.801,1.932l-29.658,29.645c-0.513,0.516 -1.212,0.806 -1.939,0.805l0.014,0Zm-29.959,13.628c-0.723,-0.003 -1.416,-0.293 -1.925,-0.806l-9.231,-9.299c-0.569,-0.517 -0.893,-1.251 -0.893,-2.02c-0,-1.498 1.232,-2.731 2.73,-2.731c0.773,-0 1.51,0.328 2.027,0.901l5.612,5.625l4.452,-22.257c0.209,-1.321 1.359,-2.305 2.698,-2.305c1.498,0 2.73,1.233 2.73,2.731c0,0.216 -0.025,0.43 -0.075,0.639l-5.462,27.31c-0.198,0.985 -0.924,1.784 -1.885,2.075c-0.25,0.085 -0.513,0.131 -0.778,0.137Zm-15.088,-15.102l-0.003,-0c-1.498,-0 -2.731,-1.233 -2.731,-2.731c0,-0.728 0.291,-1.427 0.808,-1.939c0.512,-0.508 1.203,-0.792 1.923,-0.792c1.499,-0 2.731,1.233 2.731,2.731c0,1.497 -1.231,2.729 -2.728,2.731Zm-5.858,-5.927c-0.723,-0.003 -1.416,-0.293 -1.926,-0.805l-9.026,-9.04c-0.549,-0.551 -0.838,-1.312 -0.792,-2.089l1.366,-23.213c0.083,-1.439 1.29,-2.579 2.731,-2.579c1.5,0 2.735,1.235 2.735,2.736c0,0.052 -0.001,0.105 -0.004,0.157l-1.366,21.971l8.193,8.192c0.517,0.513 0.808,1.212 0.808,1.939c0,1.494 -1.226,2.725 -2.719,2.731Zm74.377,-49.703c-0.088,0.009 -0.177,0.013 -0.266,0.013c-1.505,-0 -2.744,-1.239 -2.744,-2.744c0,-1.405 1.079,-2.595 2.478,-2.731l16.495,-3.304l-25.384,-25.371l-21.493,3.277c-0.138,0.021 -0.277,0.032 -0.417,0.032c-1.515,-0 -2.762,-1.247 -2.762,-2.763c-0,-1.359 1.003,-2.526 2.346,-2.731l22.858,-3.523c0.862,-0.13 1.735,0.159 2.349,0.778l30.04,30.041c0.512,0.512 0.799,1.207 0.799,1.93c0,1.285 -0.907,2.405 -2.164,2.672l-21.493,4.301c-0.208,0.068 -0.423,0.11 -0.642,0.123Zm-115.342,-36.445c-0.721,0.001 -1.413,-0.284 -1.925,-0.792c-0.513,-0.512 -0.801,-1.207 -0.801,-1.932c0,-0.724 0.288,-1.42 0.801,-1.932l27.842,-27.883c0.517,-0.573 1.255,-0.901 2.027,-0.901c1.498,0 2.731,1.233 2.731,2.731c-0,0.769 -0.325,1.503 -0.894,2.021l-27.842,27.896c-0.515,0.511 -1.213,0.796 -1.939,0.792Zm37.387,22.462c-4.305,0.009 -8.438,-1.709 -11.47,-4.765c-6.264,-6.31 -6.264,-16.644 -0,-22.954c3.041,-3.04 7.169,-4.749 11.469,-4.749c8.661,-0 15.873,6.936 16.209,15.591c0.002,1.453 -1.156,2.666 -2.608,2.731c-0.042,0.002 -0.083,0.003 -0.125,0.003c-1.453,-0 -2.665,-1.16 -2.729,-2.611c-0.253,-5.718 -5.026,-10.284 -10.749,-10.284c-5.903,-0 -10.76,4.857 -10.76,10.759c-0,5.903 4.857,10.761 10.76,10.761c2.853,-0 5.592,-1.135 7.609,-3.152c0.517,-0.573 1.254,-0.901 2.027,-0.901c1.498,-0 2.731,1.233 2.731,2.731c-0,0.769 -0.325,1.503 -0.894,2.02c-3.02,3.081 -7.156,4.819 -11.47,4.82Z" style="fill:#102a43;fill-rule:nonzero;"/><path d="M94.032,93.934c1.183,-1.182 9.166,4.889 17.814,13.549c8.648,8.661 14.709,16.652 13.525,17.834c-1.184,1.182 -9.167,-4.889 -17.815,-13.55c-8.648,-8.66 -14.708,-16.651 -13.524,-17.833Z" style="fill:#102a43;"/><path d="M171.389,180.719c-9.087,0.12 -17.766,-3.837 -23.636,-10.774c-0.42,1.48 -0.685,2.999 -0.792,4.533c-0.073,0.751 -0.454,1.438 -1.052,1.898c-0.597,0.46 -1.358,0.653 -2.103,0.533c-0.286,-0 -7.059,-1.215 -9.312,-10.528c-0.051,-0.21 -0.077,-0.426 -0.077,-0.642c0,-1.499 1.234,-2.732 2.733,-2.732c1.257,-0 2.36,0.868 2.656,2.09c0.355,1.752 1.155,3.384 2.321,4.739c0.642,-2.827 1.816,-5.312 4.192,-5.954c2.041,-0.412 4.14,0.454 5.298,2.185c5.386,6.459 13.623,9.865 21.998,9.094c-6.827,-14.365 -19.39,-17.546 -19.513,-17.574c-0.9,-0.216 -1.631,-0.875 -1.939,-1.748c-0.31,-0.873 -0.155,-1.846 0.41,-2.58c3.496,-4.493 9.203,-5.462 13.054,-5.667c-3.441,-9.558 -10.924,-9.695 -11.115,-9.695c-1.498,-0 -2.731,-1.233 -2.731,-2.731c0,-1.498 1.233,-2.731 2.731,-2.731c4.766,0 14.583,3.591 17.451,17.478c0.039,0.185 0.058,0.374 0.058,0.562c0,1.498 -1.232,2.731 -2.731,2.731c-0.133,0 -0.267,-0.01 -0.4,-0.029c-2.902,-0.358 -5.849,-0.031 -8.602,0.956c9.278,4.523 16.399,12.539 19.8,22.284c0.269,0.724 0.219,1.528 -0.137,2.212c-0.363,0.682 -0.999,1.179 -1.748,1.366c-2.236,0.505 -4.522,0.747 -6.814,0.724Zm-15.744,-146.393c0,-0.465 -0.792,-0.875 -2.048,-1.175c-1.612,-0.374 -2.876,-1.638 -3.25,-3.25c-0.286,-1.256 -0.71,-2.048 -1.174,-2.048c-0.464,0 -0.888,0.792 -1.174,2.048c-0.374,1.612 -1.638,2.876 -3.25,3.25c-1.256,0.287 -2.049,0.71 -2.049,1.175c0,0.464 0.793,0.887 2.049,1.174c1.6,0.37 2.86,1.614 3.25,3.209c0.3,1.27 0.71,2.061 1.174,2.061c0.464,0 0.888,-0.791 1.174,-2.061c0.373,-1.611 1.638,-2.871 3.25,-3.236c1.256,-0.26 2.048,-0.683 2.048,-1.147Zm-84.018,132.328c0,-0.751 -1.27,-1.365 -3.304,-1.898c-2.602,-0.606 -4.637,-2.653 -5.23,-5.257c-0.478,-2.034 -1.147,-3.304 -1.898,-3.304c-0.751,-0 -1.434,1.27 -1.898,3.304c-0.6,2.603 -2.641,4.644 -5.244,5.243c-2.034,0.478 -3.304,1.161 -3.304,1.912c0,0.751 1.27,1.366 3.304,1.898c2.602,0.603 4.642,2.642 5.244,5.244c0.464,2.034 1.147,3.318 1.898,3.318c0.751,-0 1.366,-1.284 1.898,-3.318c0.598,-2.6 2.632,-4.64 5.23,-5.244c2.034,-0.478 3.304,-1.147 3.304,-1.898Zm108.897,-46.139c0,-0.506 -0.846,-0.956 -2.212,-1.27c-1.74,-0.406 -3.104,-1.77 -3.509,-3.51c-0.314,-1.365 -0.765,-2.225 -1.27,-2.225c-0.505,-0 -0.956,0.86 -1.27,2.225c-0.396,1.751 -1.762,3.127 -3.509,3.537c-1.365,0.314 -2.212,0.765 -2.212,1.27c-0,0.505 0.847,0.956 2.212,1.27c1.764,0.377 3.16,1.741 3.577,3.495c0.314,1.366 0.765,2.213 1.27,2.213c0.506,-0 0.956,-0.847 1.27,-2.213c0.398,-1.746 1.764,-3.118 3.509,-3.522c1.298,-0.315 2.144,-0.765 2.144,-1.27Zm-72.561,-32.649c-0.356,-0 -0.709,-0.07 -1.038,-0.205c-0.334,-0.137 -0.636,-0.342 -0.888,-0.601c-0.512,-0.509 -0.802,-1.202 -0.805,-1.925c-0.021,-0.177 -0.021,-0.356 -0,-0.533c0.035,-0.176 0.086,-0.35 0.15,-0.518c0.073,-0.162 0.16,-0.318 0.259,-0.465c0.203,-0.293 0.458,-0.548 0.752,-0.751c0.151,-0.1 0.311,-0.186 0.477,-0.259c0.162,-0.071 0.332,-0.121 0.506,-0.15c0.892,-0.175 1.815,0.107 2.458,0.75c0.132,0.121 0.246,0.259 0.341,0.41c0.105,0.144 0.192,0.3 0.259,0.465c0.071,0.166 0.121,0.34 0.15,0.518c0.021,0.177 0.021,0.356 0,0.533c-0.003,0.723 -0.293,1.416 -0.805,1.925c-0.12,0.132 -0.258,0.247 -0.41,0.342c-0.144,0.104 -0.3,0.191 -0.464,0.259c-0.335,0.131 -0.692,0.2 -1.052,0.205l0.11,-0Zm-1.366,-47.724c-0.356,0 -0.708,-0.069 -1.038,-0.204c-0.332,-0.14 -0.634,-0.344 -0.887,-0.601c-0.259,-0.247 -0.464,-0.544 -0.601,-0.874c-0.137,-0.334 -0.206,-0.691 -0.205,-1.052c-0.013,-0.177 -0.013,-0.355 0,-0.532c0.04,-0.177 0.095,-0.351 0.164,-0.519c0.069,-0.162 0.151,-0.317 0.246,-0.464c0.098,-0.149 0.213,-0.286 0.341,-0.41c0.121,-0.132 0.258,-0.247 0.41,-0.341c0.152,-0.1 0.312,-0.187 0.478,-0.26c0.164,-0.064 0.333,-0.114 0.505,-0.15c0.352,-0.07 0.714,-0.07 1.065,0c0.177,0.036 0.35,0.086 0.519,0.15c0.162,0.073 0.317,0.16 0.464,0.26c0.154,0.097 0.296,0.212 0.424,0.341c0.124,0.127 0.238,0.264 0.341,0.41c0.095,0.147 0.177,0.302 0.246,0.464c0.07,0.166 0.121,0.34 0.15,0.519c0.02,0.177 0.02,0.355 0,0.532c0.002,0.361 -0.068,0.718 -0.205,1.052c-0.424,1.017 -1.424,1.682 -2.526,1.679l0.109,0Zm-66.717,79.13c-1.494,-0.006 -2.72,-1.237 -2.72,-2.731c0,-0.721 0.286,-1.414 0.794,-1.925c0.121,-0.132 0.259,-0.247 0.41,-0.342c0.144,-0.105 0.3,-0.191 0.464,-0.259c0.167,-0.071 0.341,-0.121 0.519,-0.15c0.893,-0.175 1.816,0.107 2.458,0.751c0.509,0.511 0.794,1.204 0.794,1.925c0,1.494 -1.225,2.725 -2.719,2.731Z" style="fill:#102a43;fill-rule:nonzero;"/><ellipse cx="161.449" cy="57.771" rx="7.496" ry="7.51" style="fill:#84c5f4;"/><path d="M165.299,64.148c-2.716,0.006 -5.324,-1.077 -7.237,-3.005c-3.945,-3.981 -3.945,-10.492 0,-14.474c1.916,-1.905 4.511,-2.976 7.213,-2.976c5.611,-0 10.228,4.616 10.228,10.227c-0,5.602 -4.602,10.214 -10.204,10.228Zm0,-15.021c-2.627,0.003 -4.787,2.166 -4.787,4.793c-0,1.276 0.509,2.501 1.414,3.4c1.87,1.794 4.863,1.794 6.732,-0c0.917,-0.899 1.435,-2.13 1.435,-3.414c-0,-2.622 -2.158,-4.779 -4.779,-4.779l-0.015,0Z" style="fill:#102a43;fill-rule:nonzero;"/><ellipse cx="48.018" cy="145.271" rx="7.496" ry="7.51" style="fill:#f8e3a3;"/><path d="M44.168,151.648c-2.713,0.009 -5.318,-1.075 -7.224,-3.005c-3.959,-3.974 -3.959,-10.499 0,-14.474c1.914,-1.922 4.517,-3.005 7.23,-3.005c2.713,0 5.317,1.083 7.23,3.005c3.946,3.982 3.946,10.493 0,14.474c-1.912,1.928 -4.521,3.011 -7.236,3.005Zm-0,-15.021c-1.257,-0.011 -2.467,0.481 -3.36,1.366c-0.91,0.902 -1.422,2.132 -1.422,3.413c-0,1.282 0.512,2.512 1.422,3.414c1.87,1.794 4.862,1.794 6.732,-0c0.91,-0.902 1.423,-2.132 1.423,-3.414c0,-1.281 -0.513,-2.511 -1.423,-3.413c-0.897,-0.886 -2.112,-1.378 -3.372,-1.366Z" style="fill:#102a43;fill-rule:nonzero;"/></g></g></g></svg>